<?xml version="1.0" encoding="UTF-8"?>
<svg version="1.1" xmlns="http://www.w3.org/2000/svg" width="801" height="311">
<path d="M0 0 C0.70706085 0.00359528 1.4141217 0.00719055 2.14260864 0.01089478 C2.88402603 0.01074875 3.62544342 0.01060272 4.389328 0.01045227 C6.85130696 0.01115152 9.31321119 0.01894442 11.775177 0.02676392 C13.47768614 0.02862806 15.18019582 0.03005198 16.88270569 0.03105164 C21.37245148 0.03487714 25.86216513 0.0447077 30.35189819 0.05575562 C34.92983566 0.06596903 39.50777831 0.07054911 44.08572388 0.07559204 C53.07467032 0.08632994 62.06359287 0.10340675 71.05252075 0.12442017 C70.46051392 4.57846913 69.71024456 8.9174738 68.67630005 13.28945923 C68.4008284 14.46159973 68.12535675 15.63374023 67.84153748 16.84140015 C67.54377914 18.094953 67.24602081 19.34850586 66.9392395 20.64004517 C66.62436571 21.97568492 66.30981218 23.31140021 65.99555969 24.64718628 C65.34153244 27.42596295 64.68604186 30.20438841 64.0295105 32.98257446 C62.80633665 38.16261756 61.59736978 43.34596007 60.38830566 48.52931213 C58.88386293 54.97845767 57.37453238 61.42645958 55.86502075 67.87442017 C55.70524246 68.55699261 55.54546417 69.23956505 55.38084412 69.9428215 C50.67134978 90.05904943 45.90681112 110.16098591 41.06512451 130.24588013 C37.50291841 145.02548849 34.00339628 159.81843515 30.55252075 174.62442017 C26.82038211 190.62516781 23.05691773 206.61819551 19.23928833 222.5987854 C18.70043487 224.85613574 18.16282616 227.11378359 17.62649536 229.37173462 C16.88402409 232.49588433 16.13692344 235.61888934 15.38845825 238.74160767 C15.1660849 239.68080048 14.94371155 240.61999329 14.71459961 241.58764648 C14.50948761 242.43880035 14.30437561 243.28995422 14.0930481 244.16690063 C13.91526825 244.91116302 13.7374884 245.65542542 13.55432129 246.42224121 C13.05252075 248.12442017 13.05252075 248.12442017 12.05252075 249.12442017 C9.67951206 249.2193675 7.33573372 249.25001336 4.96243286 249.23794556 C4.22101547 249.23809158 3.47959808 249.23823761 2.7157135 249.23838806 C0.25373454 249.23768882 -2.20816968 249.22989591 -4.6701355 249.22207642 C-6.37264464 249.22021228 -8.07515432 249.21878836 -9.77766418 249.2177887 C-14.26740998 249.21396319 -18.75712363 249.20413263 -23.24685669 249.19308472 C-27.82479416 249.1828713 -32.4027368 249.17829123 -36.98068237 249.17324829 C-45.96962882 249.16251039 -54.95855136 249.14543358 -63.94747925 249.12442017 C-62.92467076 240.56098462 -62.92467076 240.56098462 -62.10641479 237.06240845 C-61.94454178 236.36154114 -61.78266876 235.66067383 -61.6158905 234.93856812 C-61.44043198 234.19810242 -61.26497345 233.45763672 -61.084198 232.69473267 C-60.89637253 231.88788025 -60.70854706 231.08102783 -60.51502991 230.24972534 C-59.89259871 227.5819419 -59.26396823 224.91566447 -58.63497925 222.24942017 C-58.19029377 220.35184023 -57.74579931 218.45421552 -57.30148315 216.55654907 C-51.19388269 190.52233537 -44.93896662 164.52198813 -38.61935425 138.53848267 C-38.35559998 137.45401604 -38.35559998 137.45401604 -38.08651733 136.34764099 C-37.41980114 133.60682539 -36.75307435 130.86601259 -36.08566284 128.12536621 C-33.67594954 118.22452744 -31.36056691 108.30485109 -29.0944519 98.37026978 C-27.4699876 91.28466389 -25.73748738 84.23236441 -23.94747925 77.18692017 C-21.86167432 68.96611789 -19.94186078 60.7233543 -18.13497925 52.43692017 C-15.80438853 41.77154543 -13.31924785 31.14895384 -10.74987793 20.53881836 C-10.34074678 18.84919543 -9.93284377 17.15927464 -9.52618408 15.46905518 C-8.95565574 13.10060975 -8.38016359 10.73343105 -7.802948 8.36660767 C-7.54396729 7.28893883 -7.54396729 7.28893883 -7.27975464 6.1894989 C-5.76066613 0.01235699 -5.76066613 0.01235699 0 0 Z " fill="#EB2C2F" transform="translate(545.9474792480469,44.875579833984375)"/>
<path d="M0 0 C25.08 0 50.16 0 76 0 C77.71216434 3.42432869 75.986053 7.13166887 75.12353516 10.71850586 C74.90974999 11.63168957 74.69596483 12.54487328 74.47570133 13.48572922 C73.75337987 16.56368404 73.02114568 19.63919731 72.2890625 22.71484375 C71.77197956 24.90991156 71.25554018 27.10513106 70.73970032 29.30049133 C69.6265925 34.03196843 68.50917726 38.76239987 67.38839722 43.49206543 C65.62036713 50.95314764 63.86115909 58.41629042 62.10375977 65.87988281 C60.27777106 73.63330155 58.45134963 81.38661607 56.6217804 89.13919067 C52.30166052 107.44753068 48.01034154 125.76241371 43.73828125 144.08203125 C43.44878853 145.32317625 43.15929581 146.56432125 42.86103058 147.84307671 C40.33217108 158.68535228 37.80469307 169.5279496 35.27838135 180.37081909 C33.97868193 185.94861976 32.67760814 191.52609825 31.3755703 197.1033535 C30.89786184 199.15082683 30.42068014 201.19842315 29.94405556 203.24614906 C29.29593369 206.03061077 28.64610307 208.81466826 27.99584961 211.59863281 C27.80646631 212.41423644 27.61708302 213.22984007 27.42196083 214.07015896 C26.71410521 217.0942669 25.98278625 220.05164125 25 223 C-0.41 223 -25.82 223 -52 223 C-47.27371352 200.94399644 -42.2838053 178.9786794 -36.9206543 157.07095337 C-32.25476909 138.01063518 -27.76429056 118.91351108 -23.48095703 99.76318359 C-20.44356829 86.18763267 -17.2416164 72.66271005 -13.92358398 59.15307617 C-10.90737509 46.86372483 -8.03519107 34.5490908 -5.29492188 22.1953125 C-5.03517578 21.02613281 -4.77542969 19.85695313 -4.5078125 18.65234375 C-4.28754395 17.65195068 -4.06727539 16.65155762 -3.84033203 15.62084961 C-2.62812959 10.39767284 -1.30047526 5.20190104 0 0 Z " fill="#221E1F" transform="translate(96,45)"/>
<path d="M0 0 C0.70706085 0.00359528 1.4141217 0.00719055 2.14260864 0.01089478 C2.88402603 0.01074875 3.62544342 0.01060272 4.389328 0.01045227 C6.85130696 0.01115152 9.31321119 0.01894442 11.775177 0.02676392 C13.47768614 0.02862806 15.18019582 0.03005198 16.88270569 0.03105164 C21.37245148 0.03487714 25.86216513 0.0447077 30.35189819 0.05575562 C34.92983566 0.06596903 39.50777831 0.07054911 44.08572388 0.07559204 C53.07467032 0.08632994 62.06359287 0.10340675 71.05252075 0.12442017 C70.16937303 6.42033621 68.94002128 12.54799207 67.55252075 18.74942017 C67.16483521 20.49062134 67.16483521 20.49062134 66.76931763 22.26699829 C64.30372036 33.22203023 61.6394486 44.1265034 58.9614563 55.03121948 C56.54588754 64.87298953 54.20592903 74.7211753 52.05252075 84.62442017 C49.5473524 96.14536389 46.77167526 107.59072616 43.95925903 119.03945923 C41.54444469 128.87847944 39.20538605 138.72397746 37.05252075 148.62442017 C34.35153891 161.04243053 31.34526677 173.37838411 28.31619263 185.71939087 C25.92784266 195.46020536 23.61139255 205.21182163 21.46047974 215.00845337 C20.15089846 220.92766475 20.15089846 220.92766475 19.05252075 223.12442017 C-6.02747925 223.12442017 -31.10747925 223.12442017 -56.94747925 223.12442017 C-55.82248333 212.99945693 -55.82248333 212.99945693 -54.75128174 208.46156311 C-54.5107457 207.43101303 -54.27020966 206.40046295 -54.02238464 205.33868408 C-53.7596727 204.23729095 -53.49696075 203.13589783 -53.22628784 202.00112915 C-52.94787552 200.81514633 -52.6694632 199.62916351 -52.38261414 198.40724182 C-51.61896653 195.15885627 -50.85064387 191.91164408 -50.08025694 188.66485476 C-49.2572485 185.19103655 -48.44044241 181.71576004 -47.6229248 178.24064636 C-46.0584046 171.59424079 -44.48856225 164.94910442 -42.91672766 158.3044253 C-41.01903215 150.28124408 -39.12766209 142.25657513 -37.23654175 134.23184204 C-36.55717395 131.34939291 -35.877743 128.46695867 -35.19827271 125.58453369 C-35.0300945 124.871085 -34.8619163 124.15763631 -34.68864179 123.42256796 C-33.49708434 118.36824808 -32.30440005 113.31419487 -31.11123657 108.26025391 C-25.34997118 83.85515093 -19.62202711 59.44230312 -13.90622139 35.02651691 C-13.34189133 32.6168204 -12.77713368 30.20722397 -12.2118969 27.79773998 C-11.02460937 22.73551539 -9.84115472 17.67260542 -8.67764282 12.6048584 C-8.49060476 11.79504485 -8.3035667 10.9852313 -8.11086082 10.15087795 C-7.77576953 8.69869165 -7.44345504 7.24586028 -7.1146183 5.79224491 C-5.86700672 0.40419278 -5.57645671 0.01196185 0 0 Z " fill="#221E1F" transform="translate(693.9474792480469,44.875579833984375)"/>
<path d="M0 0 C25.08 0 50.16 0 76 0 C73.75002034 12.37488815 73.75002034 12.37488815 72.70373535 16.81588745 C72.34742633 18.33742605 72.34742633 18.33742605 71.98391914 19.8897028 C71.60226003 21.50060118 71.60226003 21.50060118 71.21289062 23.14404297 C70.93882826 24.31081542 70.66476589 25.47758787 70.38239861 26.67971706 C69.63316703 29.86708325 68.88148934 33.05386038 68.12873793 36.24039674 C67.32533722 39.64416649 66.52522957 43.04871028 65.72476196 46.45317078 C64.3597595 52.25679612 62.99286249 58.05997232 61.62457275 63.86282349 C59.49826118 72.88051395 57.37543705 81.8990232 55.25341797 90.91772461 C54.89976761 92.42071263 54.54611656 93.92370049 54.19246483 95.42668819 C53.66333173 97.67545849 53.13420258 99.92422971 52.60509193 102.17300528 C51.5508069 106.65371874 50.49620571 111.13435764 49.44135606 115.6149382 C45.27150788 133.32705918 41.11186746 151.04149347 36.9765625 168.76171875 C36.6504385 170.15894039 36.6504385 170.15894039 36.31772614 171.58438873 C34.35971835 179.97388286 32.40374448 188.36384814 30.45096779 196.75456142 C29.77224896 199.66974143 29.09248147 202.5846762 28.41245651 205.49955177 C27.9625921 207.42976544 27.51429987 209.36034531 27.06607056 211.29093933 C26.80466278 212.41124039 26.543255 213.53154144 26.27392578 214.68579102 C26.04988068 215.64888687 25.82583557 216.61198273 25.59500122 217.60426331 C25 220 25 220 24 223 C-1.41 223 -26.82 223 -53 223 C-50.64539029 212.40425631 -48.28882315 201.8166475 -45.8125 191.25 C-45.52060791 190.0012207 -45.22871582 188.75244141 -44.92797852 187.46582031 C-42.26061396 176.06570744 -39.55558358 164.67452188 -36.85198975 153.28295898 C-34.27564334 142.42513304 -31.73096934 131.56089181 -29.23364258 120.68457031 C-26.21895187 107.57040805 -23.12055688 94.47587415 -20.03222656 81.37890625 C-18.85087969 76.36841406 -17.67159409 71.35743769 -16.49299622 66.34629822 C-15.6666719 62.83295953 -14.83979827 59.31975266 -14.01147461 55.80688477 C-12.45462921 49.2017882 -10.90368336 42.59545928 -9.37203979 35.98446655 C-8.65277763 32.88147396 -7.93038707 29.77921327 -7.20776367 26.67700195 C-6.86603412 25.20600939 -6.52581705 23.73466447 -6.18725586 22.26293945 C-5.71597616 20.21473092 -5.23936519 18.16782551 -4.76171875 16.12109375 C-4.49319092 14.9602124 -4.22466309 13.79933105 -3.94799805 12.60327148 C-2.82787552 8.34576739 -1.39215716 4.17647149 0 0 Z " fill="#221E1F" transform="translate(245,45)"/>
<path d="M0 0 C0.70706085 0.00359528 1.4141217 0.00719055 2.14260864 0.01089478 C2.88402603 0.01074875 3.62544342 0.01060272 4.389328 0.01045227 C6.85130696 0.01115152 9.31321119 0.01894442 11.775177 0.02676392 C13.47768614 0.02862806 15.18019582 0.03005198 16.88270569 0.03105164 C21.37245148 0.03487714 25.86216513 0.0447077 30.35189819 0.05575562 C34.92983566 0.06596903 39.50777831 0.07054911 44.08572388 0.07559204 C53.07467032 0.08632994 62.06359287 0.10340675 71.05252075 0.12442017 C69.83140211 7.1382247 68.44283595 14.079919 66.80374146 21.00747681 C66.58635095 21.93622746 66.36896044 22.8649781 66.14498234 23.82187271 C65.42535191 26.89338952 64.70183392 29.96397652 63.978302 33.03457642 C63.46037184 35.24172935 62.94268805 37.4489401 62.42523193 39.65620422 C61.03106964 45.60010282 59.63355275 51.54320796 58.23536301 57.48616028 C56.77810574 63.68252636 55.32376641 69.87957718 53.86917114 76.0765686 C51.76959635 85.02018074 49.66896814 93.96354434 47.5671339 102.90662575 C44.06185933 117.82162633 40.5638301 132.73831225 37.07022285 147.65604973 C35.47256733 154.47752514 33.87405202 161.29879912 32.27554989 168.12007618 C31.00819693 173.52839628 29.7412051 178.93680041 28.47503662 184.34539795 C27.29242501 189.39674357 26.10844879 194.44776741 24.92341232 199.49854469 C24.49053164 201.34458714 24.05814047 203.19074444 23.62627029 205.03702354 C23.04039688 207.54139553 22.45281113 210.04535957 21.86477661 212.54922485 C21.69409322 213.2806775 21.52340982 214.01213015 21.34755421 214.76574802 C20.68023191 217.60042791 19.97411108 220.35964918 19.05252075 223.12442017 C-6.35747925 223.12442017 -31.76747925 223.12442017 -57.94747925 223.12442017 C-55.15961918 210.57904987 -52.35740837 198.03917601 -49.49533081 185.51089478 C-49.05622509 183.58638174 -48.61834298 181.66158898 -48.18185425 179.73648071 C-45.01212041 165.7589692 -41.66652322 151.8288696 -38.25216675 137.90957642 C-32.9594974 116.32691732 -27.90055057 94.69216473 -22.87576294 73.04580688 C-12.28642326 27.43722643 -12.28642326 27.43722643 -8.36935425 10.93692017 C-8.13081726 9.92138062 -7.89228027 8.90584106 -7.64651489 7.85952759 C-7.43226868 6.96338745 -7.21802246 6.06724731 -6.99728394 5.14395142 C-6.81639221 4.38187378 -6.63550049 3.61979614 -6.4491272 2.83462524 C-5.40773415 -0.71566472 -3.34109517 0.00716686 0 0 Z " fill="#221E1F" transform="translate(397.9474792480469,44.875579833984375)"/>
<path d="M0 0 C0.33 0 0.66 0 1 0 C0.88140625 0.74765625 0.7628125 1.4953125 0.640625 2.265625 C-0.39205963 8.20622376 -0.39205963 8.20622376 1.75 13.5 C2.4925 13.995 3.235 14.49 4 15 C4.62833488 15.77552971 4.62833488 15.77552971 5.2693634 16.56672668 C7.78514544 18.65023935 9.70482005 18.39901876 12.94018555 18.43237305 C14.77174446 18.46206429 14.77174446 18.46206429 16.64030457 18.49235535 C17.95912125 18.49874527 19.27793793 18.50513519 20.63671875 18.51171875 C22.00008263 18.52856431 23.36343097 18.5467144 24.72676086 18.56611633 C28.31221662 18.61363653 31.89760938 18.6434324 35.48327637 18.66955566 C39.14327439 18.6993513 42.80305525 18.74588495 46.46289062 18.79101562 C53.64181938 18.87707151 60.82076388 18.94440619 68 19 C68.33 18.34 68.66 17.68 69 17 C69 17.66 69 18.32 69 19 C69.66 19 70.32 19 71 19 C72.32 12.73 73.64 6.46 75 0 C75.99 0.495 75.99 0.495 77 1 C76.36026485 4.14710574 75.71219502 7.29243659 75.0625 10.4375 C74.78889648 11.78424805 74.78889648 11.78424805 74.50976562 13.15820312 C74.33251953 14.01220703 74.15527344 14.86621094 73.97265625 15.74609375 C73.72914429 16.93223267 73.72914429 16.93223267 73.48071289 18.14233398 C73 20 73 20 72 21 C69.62699131 21.09494733 67.28321297 21.12559319 64.90991211 21.11352539 C64.16849472 21.11367142 63.42707733 21.11381744 62.66319275 21.1139679 C60.20121379 21.11326865 57.73930957 21.10547574 55.27734375 21.09765625 C53.57483461 21.09579211 51.87232493 21.09436819 50.16981506 21.09336853 C45.68006927 21.08954302 41.19035562 21.07971247 36.70062256 21.06866455 C32.12268509 21.05845113 27.54474244 21.05387106 22.96679688 21.04882812 C13.97785043 21.03809022 4.98892788 21.02101341 -4 21 C-3.38771819 15.89842178 -2.63705108 11.00682191 -1.4375 6 C-1.16808594 4.865625 -0.89867187 3.73125 -0.62109375 2.5625 C-0.41613281 1.716875 -0.21117187 0.87125 0 0 Z " fill="#D93939" transform="translate(486,273)"/>
<path d="M0 0 C25.08 0 50.16 0 76 0 C74.875 7.875 74.875 7.875 74.02734375 11.40234375 C73.76147461 12.51899414 73.76147461 12.51899414 73.49023438 13.65820312 C73.30783203 14.41037109 73.12542969 15.16253906 72.9375 15.9375 C72.75123047 16.71673828 72.56496094 17.49597656 72.37304688 18.29882812 C71.91818991 20.19989697 71.4594938 22.10004657 71 24 C70.67 24 70.34 24 70 24 C68.39481846 12.95712461 68.39481846 12.95712461 72 8 C72.0248753 5.76033623 72.0248753 5.76033623 71 4 C67.61777868 2.87259289 64.98361297 2.84082309 61.41723633 2.79467773 C60.75355545 2.78477814 60.08987457 2.77487854 59.40608215 2.76467896 C57.21476801 2.7331191 55.02343219 2.70832845 52.83203125 2.68359375 C51.31173645 2.66301945 49.79144731 2.64202285 48.27116394 2.62062073 C44.27141913 2.56544916 40.27162311 2.51601825 36.27178955 2.46777344 C32.18961026 2.4175225 28.10750526 2.36185519 24.02539062 2.30664062 C16.0169899 2.19911918 8.00852701 2.09766089 0 2 C-0.33 2.66 -0.66 3.32 -1 4 C-0.67 2.68 -0.34 1.36 0 0 Z " fill="#C84142" transform="translate(541,45)"/>
<path d="M0 0 C0.99 0 1.98 0 3 0 C3 0.66 3 1.32 3 2 C26.43 2.33 49.86 2.66 74 3 C73.67 3.66 73.34 4.32 73 5 C48.58 5 24.16 5 -1 5 C-0.67 3.35 -0.34 1.7 0 0 Z " fill="#191617" transform="translate(193,263)"/>
<path d="M0 0 C0.99 0.33 1.98 0.66 3 1 C5.25339666 1.11812495 7.51004496 1.17696645 9.76635742 1.20532227 C10.44954544 1.21522186 11.13273346 1.22512146 11.83662415 1.23532104 C14.09287053 1.26688679 16.34913797 1.2916739 18.60546875 1.31640625 C20.17060389 1.33698004 21.73573352 1.35797662 23.30085754 1.37937927 C27.41897116 1.43455609 31.53713456 1.48398471 35.65533447 1.53222656 C39.85815864 1.58247365 44.06091058 1.63814297 48.26367188 1.69335938 C56.5090535 1.80088726 64.75449558 1.90234413 73 2 C72.67 2.66 72.34 3.32 72 4 C47.91 4 23.82 4 -1 4 C-0.67 2.68 -0.34 1.36 0 0 Z " fill="#181717" transform="translate(45,264)"/>
<path d="M0 0 C8.91012483 -0.02318661 17.82023925 -0.04094732 26.73038769 -0.05181217 C30.86787673 -0.05702717 35.00534511 -0.0640997 39.14282227 -0.07543945 C43.13690201 -0.08631749 47.1309619 -0.09228727 51.12505531 -0.09487724 C52.6476504 -0.09672263 54.17024442 -0.10032618 55.69283104 -0.10573006 C57.82804068 -0.11300573 59.9631686 -0.11398819 62.09838867 -0.11352539 C63.3130632 -0.115746 64.52773773 -0.11796661 65.77922058 -0.12025452 C68.64995538 -0.01306965 71.21233078 0.33577182 74 1 C74 1.66 74 2.32 74 3 C49.25 3 24.5 3 -1 3 C-0.67 2.01 -0.34 1.02 0 0 Z " fill="#191717" transform="translate(639,265)"/>
<path d="M0 0 C-1 1 -1 1 -3.89161682 1.12025452 C-5.18623337 1.11803391 -6.48084991 1.11581329 -7.81469727 1.11352539 C-8.88293228 1.11374443 -8.88293228 1.11374443 -9.9727478 1.1139679 C-12.33733112 1.1132687 -14.70183661 1.10547606 -17.06640625 1.09765625 C-18.70165463 1.09579209 -20.33690357 1.09436818 -21.97215271 1.09336853 C-26.28434785 1.08954318 -30.59650952 1.07971275 -34.90869141 1.06866455 C-39.30565946 1.0584508 -43.70263289 1.05387099 -48.09960938 1.04882812 C-56.73308831 1.03809049 -65.36654 1.02101387 -74 1 C-74 0.34 -74 -0.32 -74 -1 C-64.94240785 -1.17705797 -55.88470016 -1.3430069 -46.82664871 -1.49477577 C-42.62063749 -1.5655972 -38.41476669 -1.64024388 -34.20898438 -1.72363281 C-30.15019302 -1.80396656 -26.09134063 -1.87425182 -22.03224945 -1.93757248 C-20.48364603 -1.96349642 -18.93509885 -1.99304096 -17.38663483 -2.02626419 C-15.21775514 -2.07218033 -13.0490325 -2.10521962 -10.87988281 -2.13525391 C-9.64522278 -2.15746002 -8.41056274 -2.17966614 -7.13848877 -2.20254517 C-4.14091852 -2.0090943 -2.50806527 -1.58398221 0 0 Z " fill="#181617" transform="translate(416,267)"/>
<path d="M0 0 C7.32824566 -0.02322164 14.65648331 -0.04096504 21.98475838 -0.05181217 C25.38796417 -0.05701956 28.79114469 -0.06407808 32.19433594 -0.07543945 C36.111325 -0.08843353 40.028304 -0.09324595 43.9453125 -0.09765625 C45.76906906 -0.10539818 45.76906906 -0.10539818 47.62966919 -0.11329651 C49.3407637 -0.11340981 49.3407637 -0.11340981 51.08642578 -0.11352539 C52.58533859 -0.11685631 52.58533859 -0.11685631 54.11453247 -0.12025452 C57.1461707 0.0060918 60.02011121 0.44160577 63 1 C63 1.33 63 1.66 63 2 C62.26972595 1.99777939 61.5394519 1.99555878 60.78704834 1.99327087 C53.90114281 1.97322452 47.01524164 1.95800368 40.12931442 1.94818783 C36.58928939 1.94297175 33.04928849 1.93589724 29.50927734 1.92456055 C25.43847422 1.91160577 21.36769641 1.90676124 17.296875 1.90234375 C16.02696716 1.89718246 14.75705933 1.89202118 13.44866943 1.88670349 C12.26774719 1.88662796 11.08682495 1.88655243 9.87011719 1.88647461 C8.83087097 1.884254 7.79162476 1.88203339 6.72088623 1.87974548 C4.31110502 1.98625015 2.29963193 2.30592919 0 3 C0 2.01 0 1.02 0 0 Z " fill="#272526" transform="translate(689,45)"/>
<path d="M0 0 C0.33 0 0.66 0 1 0 C1 2.97 1 5.94 1 9 C0.34 9 -0.32 9 -1 9 C-0.938125 10.155 -0.87625 11.31 -0.8125 12.5 C-0.79856983 16.46313461 -1.74280415 19.2892358 -3.265625 22.90234375 C-4.52508659 26.49984838 -4.74604165 30.21689626 -5 34 C-5.66 33.67 -6.32 33.34 -7 33 C-6.38355705 25.57927543 -4.80763953 18.63601852 -2.9375 11.4375 C-2.65583984 10.33341797 -2.37417969 9.22933594 -2.08398438 8.09179688 C-1.39470682 5.39310002 -0.69994298 2.6959465 0 0 Z " fill="#D03A40" transform="translate(502,206)"/>
<path d="M0 0 C1.98 0 3.96 0 6 0 C7.57536381 4.94406629 6.32001955 8.95741644 5.0625 13.8125 C4.86720703 14.60076172 4.67191406 15.38902344 4.47070312 16.20117188 C3.98981322 18.13646052 3.49616632 20.06857145 3 22 C2.67 22 2.34 22 2 22 C0.39481846 10.95712461 0.39481846 10.95712461 4 6 C4.0146239 3.8064655 4.0146239 3.8064655 3 2 C2.01 1.34 1.02 0.68 0 0 Z " fill="#D93335" transform="translate(609,47)"/>
<path d="M0 0 C1.11475495 3.34426486 0.87077674 4.34848905 0.00390625 7.66796875 C-0.22490234 8.56064453 -0.45371094 9.45332031 -0.68945312 10.37304688 C-0.93630859 11.30181641 -1.18316406 12.23058594 -1.4375 13.1875 C-1.68048828 14.12787109 -1.92347656 15.06824219 -2.17382812 16.03710938 C-2.77520947 18.36009221 -3.38418746 20.68080883 -4 23 C-4.33 23 -4.66 23 -5 23 C-6.125 15.25 -6.125 15.25 -5 13 C-4.34 13 -3.68 13 -3 13 C-3 10.03 -3 7.06 -3 4 C-2.34 4 -1.68 4 -1 4 C-0.67 2.68 -0.34 1.36 0 0 Z " fill="#D0383C" transform="translate(608,79)"/>
<path d="M0 0 C0.33 0 0.66 0 1 0 C1.625 2.875 1.625 2.875 2 6 C1.34 6.66 0.68 7.32 0 8 C-0.71927295 10.31765729 -1.3909893 12.65095874 -2 15 C-3.31534494 11.34142468 -2.65468309 8.91973519 -1.5625 5.25 C-1.27503906 4.26515625 -0.98757813 3.2803125 -0.69140625 2.265625 C-0.46324219 1.51796875 -0.23507812 0.7703125 0 0 Z M3 3 C3.33 3.66 3.66 4.32 4 5 C3.34 4.67 2.68 4.34 2 4 C2.33 3.67 2.66 3.34 3 3 Z " fill="#D5393E" transform="translate(506,190)"/>
<path d="M0 0 C1.31223496 3.93670488 0.24296256 6.12488144 -1 10 C-3.35953094 7.64046906 -3.49141413 6.22104383 -4 3 C-3.34 2.67 -2.68 2.34 -2 2 C-1.34 1.34 -0.68 0.68 0 0 Z " fill="#191717" transform="translate(728,200)"/>
<path d="M0 0 C1.2077558 3.62326739 0.54311128 4.64146369 -1 8 C-1.99 7.34 -2.98 6.68 -4 6 C-2.25 1.125 -2.25 1.125 0 0 Z " fill="#1A1719" transform="translate(735,170)"/>
<path d="M0 0 C0.66 0 1.32 0 2 0 C2.25 6.625 2.25 6.625 0 10 C-1.125 2.25 -1.125 2.25 0 0 Z " fill="#D83633" transform="translate(603,92)"/>
<path d="M0 0 C0.33 0.99 0.66 1.98 1 3 C3.00016466 4.20882096 3.00016466 4.20882096 5 5 C3.02 5.66 1.04 6.32 -1 7 C-0.67 4.69 -0.34 2.38 0 0 Z " fill="#D8383E" transform="translate(490,257)"/>
</svg>
